<?xml version="1.0" encoding="iso-8859-1"?>
<!-- Generator: Adobe Illustrator 19.0.0, SVG Export Plug-In . SVG Version: 6.00 Build 0)  -->
<svg version="1.1" id="Layer_1" xmlns="http://www.w3.org/2000/svg" xmlns:xlink="http://www.w3.org/1999/xlink" x="0px" y="0px"
	 viewBox="0 0 511.706 511.706" style="enable-background:new 0 0 511.706 511.706;" xml:space="preserve">
<path style="fill:#84DBFF;" d="M40.239,230.92h137.6c-7.467-57.6-17.067-128-27.733-214.4
	c-43.733,8.533-84.267,21.333-120.533,39.467c-24.533,12.8-35.2,41.6-26.667,67.2L40.239,230.92z"/>
<path style="fill:#54C0EB;" d="M316.506,230.92c7.467-57.6,17.067-128,27.733-214.4c-64-11.733-131.2-11.733-195.2,0
	c10.667,86.4,20.267,155.733,27.733,214.4H316.506z"/>
<path style="fill:#84DBFF;" d="M454.106,230.92c10.667-32,23.467-67.2,37.333-106.667c8.533-25.6-2.133-54.4-26.667-67.2
	c-35.2-18.133-75.733-32-120.533-39.467l-27.733,214.4h137.6V230.92z"/>
<rect x="40.239" y="230.92" style="fill:#FFD15C;" width="413.867" height="38.4"/>
<path style="fill:#FF7058;" d="M454.106,269.32v144c0,18.133-13.867,32-32,32H72.239c-18.133,0-32-13.867-32-32v-144H454.106z"/>
<path style="fill:#F1543F;" d="M229.039,444.253L229.039,444.253H80.773l0,0c0-5.333,1.067-10.667,2.133-16
	c7.467-33.067,36.267-57.6,71.467-57.6s65.067,24.533,71.467,57.6C227.973,433.586,229.039,438.92,229.039,444.253z"/>
<circle style="fill:#40596B;" cx="155.439" cy="444.253" r="59.733"/>
<circle style="fill:#F2F2F2;" cx="155.439" cy="444.253" r="32"/>
<path style="fill:#E4EAEF;" d="M155.439,418.653c17.067,0,29.867,12.8,32,28.8c0-1.067,0-2.133,0-3.2c0-18.133-14.933-32-32-32
	c-18.133,0-32,14.933-32,32c0,1.067,0,2.133,0,3.2C124.506,431.453,138.373,418.653,155.439,418.653z"/>
<path style="fill:#F1543F;" d="M419.973,444.253L419.973,444.253H271.706l0,0c0-5.333,1.067-10.667,2.133-16
	c7.467-33.067,36.267-57.6,71.467-57.6s65.067,24.533,71.467,57.6C418.906,433.586,419.973,438.92,419.973,444.253z"/>
<circle style="fill:#40596B;" cx="346.373" cy="444.253" r="59.733"/>
<circle style="fill:#F2F2F2;" cx="346.373" cy="444.253" r="32"/>
<path style="fill:#E4EAEF;" d="M346.373,418.653c17.067,0,29.867,12.8,32,28.8c0-1.067,0-2.133,0-3.2c0-18.133-14.933-32-32-32
	c-18.133,0-32,14.933-32,32c0,1.067,0,2.133,0,3.2C315.439,431.453,329.306,418.653,346.373,418.653z"/>
<rect x="454.106" y="306.653" style="fill:#CDD6E0;" width="34.133" height="27.733"/>
<path style="fill:#ACB3BA;" d="M502.106,348.253h-5.333c-5.333,0-9.6-4.267-9.6-9.6v-38.4c0-5.333,4.267-9.6,9.6-9.6h5.333
	c5.333,0,9.6,4.267,9.6,9.6v38.4C511.706,343.986,507.439,348.253,502.106,348.253z"/>
<rect x="40.239" y="269.32" style="fill:#F1543F;" width="413.867" height="13.867"/>
<g>
</g>
<g>
</g>
<g>
</g>
<g>
</g>
<g>
</g>
<g>
</g>
<g>
</g>
<g>
</g>
<g>
</g>
<g>
</g>
<g>
</g>
<g>
</g>
<g>
</g>
<g>
</g>
<g>
</g>
</svg>
