<?xml version="1.0" encoding="iso-8859-1"?>
<!-- Generator: Adobe Illustrator 19.0.0, SVG Export Plug-In . SVG Version: 6.00 Build 0)  -->
<svg version="1.1" id="Layer_1" xmlns="http://www.w3.org/2000/svg" xmlns:xlink="http://www.w3.org/1999/xlink" x="0px" y="0px"
	 viewBox="0 0 491.52 491.52" style="enable-background:new 0 0 491.52 491.52;" xml:space="preserve">
<circle style="fill:#EA8953;" cx="245.76" cy="245.76" r="245.76"/>
<path style="opacity:0.1;enable-background:new    ;" d="M378.214,125.184h-12.749l-15.821-15.77v-0.051
	c-2.662-2.714-6.298-4.403-10.393-4.403H119.45c-7.987,0-14.49,6.502-14.49,14.489V372.07c0,4.762,2.304,8.96,5.837,11.571
	l106.11,106.136c9.47,1.108,19.085,1.742,28.853,1.742c135.73,0,245.76-110.03,245.76-245.76c0-3.664-0.117-7.301-0.276-10.926
	L384.461,128.051C382.976,126.31,380.723,125.184,378.214,125.184z"/>
<path style="fill:#64798A;" d="M119.441,104.96c-7.997,0-14.481,6.483-14.481,14.48v252.64c0,7.997,6.484,14.48,14.481,14.48h41.428
	v-281.6H119.441z"/>
<path style="fill:#27A2DB;" d="M339.247,104.96H160.869v281.6h178.379c7.997,0,14.48-6.483,14.48-14.48V119.44
	C353.727,111.443,347.245,104.96,339.247,104.96z"/>
<path style="fill:#2D93BA;" d="M160.869,384.226v2.334h178.379c7.997,0,14.48-6.483,14.48-14.48V119.44
	c0-3.912-1.567-7.448-4.088-10.054L160.869,384.226z"/>
<rect x="353.741" y="125.164" style="fill:#3EA69B;" width="7.562" height="75.453"/>
<path style="fill:#44C4A1;" d="M386.56,192.257V133.53c0-4.619-3.744-8.364-8.364-8.364h-16.908v75.456h16.908
	C382.816,200.621,386.56,196.877,386.56,192.257z"/>
<path style="fill:#E56353;" d="M378.196,282.365c4.619,0,8.364-3.745,8.364-8.364v-58.727c0-4.619-3.744-8.364-8.364-8.364h-16.908
	v75.456H378.196z"/>
<rect x="353.741" y="206.899" style="fill:#D15241;" width="7.562" height="75.453"/>
<rect x="353.741" y="290.898" style="fill:#F6C358;" width="7.562" height="75.453"/>
<path style="fill:#FCD462;" d="M378.196,366.355c4.619,0,8.364-3.745,8.364-8.364v-58.727c0-4.619-3.744-8.364-8.364-8.364h-16.908
	v75.456H378.196z"/>
<g>
	<path style="fill:#FFFFFF;" d="M261.657,204.468c2.183-1.12,3.056-3.669,1.888-5.454l-21.526-32.919
		c-0.922-1.409-2.828-1.893-4.606-1.142c-2.54,1.073-6.415,2.779-10.615,4.864l25.87,39.561
		C255.91,207.476,259.19,205.733,261.657,204.468z"/>
	<path style="fill:#FFFFFF;" d="M330.822,307.798c1.401-1.328,1.723-3.268,0.801-4.678l-21.526-32.919
		c-1.167-1.785-3.852-2.008-5.754-0.457c-2.148,1.753-5.06,4.058-8.103,6.267l25.87,39.561
		C325.704,312.561,328.821,309.695,330.822,307.798z"/>
	<path style="fill:#FFFFFF;" d="M282.736,283.235c-25.567,0.471-52.783-41.147-42.1-64.381c0.862-1.875,3.918-4.297,7.579-6.702
		l-26.096-39.906c-8.154,4.416-16.174,9.877-17.249,14.729c-9.267,41.848,50.678,133.517,92.73,141.806
		c4.876,0.961,13.095-4.197,20.409-9.896l-26.096-39.906C288.243,281.368,284.799,283.197,282.736,283.235z"/>
</g>
<g>
</g>
<g>
</g>
<g>
</g>
<g>
</g>
<g>
</g>
<g>
</g>
<g>
</g>
<g>
</g>
<g>
</g>
<g>
</g>
<g>
</g>
<g>
</g>
<g>
</g>
<g>
</g>
<g>
</g>
</svg>
