<?xml version="1.0" encoding="iso-8859-1"?>
<!-- Generator: Adobe Illustrator 19.0.0, SVG Export Plug-In . SVG Version: 6.00 Build 0)  -->
<svg version="1.1" id="Layer_1" xmlns="http://www.w3.org/2000/svg" xmlns:xlink="http://www.w3.org/1999/xlink" x="0px" y="0px"
	 viewBox="0 0 512 512" style="enable-background:new 0 0 512 512;" xml:space="preserve">
<g>
	<path style="fill:#765C43;" d="M363.844,157.282L241.306,34.745c-5.672-5.673-13.214-8.797-21.237-8.797h-35.169
		c-5.877,0-11.401-2.288-15.557-6.443c-4.022-4.023-9.371-6.239-15.059-6.239c-5.689,0-11.037,2.215-15.059,6.237l-7.003,7.003
		L6.766,151.965C2.402,156.327,0,162.133,0,168.314s2.402,11.986,6.766,16.35c3.343,3.342,5.553,7.762,6.223,12.445l4.638,32.46
		c0.912,6.391,3.929,12.424,8.494,16.991l35.99,35.99l142.201-142.201c5.577-5.577,12.99-8.647,20.875-8.647
		c7.885,0,15.297,3.07,20.873,8.645l0.001,0.001l67.358,67.359c6.727,6.726,15.68,10.43,25.212,10.43s18.485-3.704,25.212-10.431
		c6.726-6.726,10.431-15.68,10.431-25.212C374.273,172.963,370.569,164.009,363.844,157.282z"/>
	<path style="fill:#765C43;" d="M6.766,151.965C2.402,156.327,0,162.133,0,168.314s2.402,11.986,6.766,16.35
		c3.343,3.342,5.553,7.762,6.223,12.445l4.638,32.46c0.912,6.391,3.929,12.424,8.494,16.991l35.99,35.99l142.201-142.201
		c5.577-5.577,12.99-8.647,20.875-8.647c7.885,0,15.297,3.07,20.873,8.645L132.221,26.508L6.766,151.965z"/>
</g>
<path style="fill:#634D3E;" d="M247.593,141.882l-28.648-28.648c-11.486-11.486-30.107-11.486-41.592,0L74.526,216.06
	c-4.945,4.945-12.961,4.945-17.906,0l0,0c-4.566-4.566-7.583-10.6-8.494-16.991l-4.714-32.994
	c-0.651-4.552-2.901-8.664-6.151-11.916c-4.36-4.364-6.762-10.168-6.762-16.346c0-6.18,2.402-11.986,6.766-16.349L139.227,19.504
	c0,0,0,0-0.001,0.001L6.766,151.965c-5.158,5.157-7.575,12.33-6.524,19.755c0.715,5.047,3.309,9.586,6.838,13.264
	c3.169,3.302,5.262,7.59,5.909,12.125l4.638,32.46c0.912,6.391,3.929,12.424,8.494,16.991l35.169,35.169l26.226-26.379
	l23.205,23.405L247.593,141.882z"/>
<path style="fill:#E8C684;" d="M508.69,160.324L374.838,26.471c-2.134-2.131-4.97-3.306-8.016-3.306
	c-3.035,0.007-5.881,1.202-8.016,3.365l-6.327,6.415c-9.154,9.28-21.099,15.305-34.004,17.149l-9.701,1.385
	c-9.583,1.369-18.848,5.094-26.793,10.776l-8.6,6.149L51.079,291.998c-7.795,7.796-11.536,18.564-10.164,29.747
	c0.772,6.292,3.263,12.3,7.169,17.292c6.939,8.866,17.192,13.828,28.208,13.828c4.234,0,8.355-0.734,12.219-2.139
	c2.462-0.896,4.797,1.438,3.903,3.901c-1.402,3.862-2.134,7.981-2.134,12.216c0,9.532,3.705,18.486,10.431,25.212
	c6.726,6.726,15.68,10.431,25.212,10.431c4.237,0,8.36-0.732,12.224-2.136c2.423-0.88,4.813,1.397,3.925,3.817
	c-1.928,5.253-2.61,10.985-1.895,16.832c0.764,6.241,3.22,12.203,7.071,17.173c6.927,8.941,17.226,13.947,28.307,13.947
	c6.572,0,19.208-6.445,26.362-10.409c1.681-0.932,3.596,0.763,2.868,2.541c-2.46,6.007-5.964,15.552-6.292,21.857
	c-0.371,7.11,2.768,13.813,7.795,18.852c3.927,3.936,9.006,6.615,14.496,7.491c7.572,1.208,14.946-0.737,20.73-5.227
	l210.562-197.581l18.226-18.226c11.387-11.387,17.785-26.832,17.785-42.937v-2.434c0-18.789,7.317-36.454,20.606-49.742
	c2.133-2.135,3.306-4.971,3.306-7.987C512,165.298,510.825,162.461,508.69,160.324z"/>
<path style="fill:#E2AC76;" d="M275.335,453.489l-1.458,1.369c-5.785,4.491-13.157,6.437-20.73,5.227
	c-5.49-0.877-10.57-3.555-14.496-7.491c-5.028-5.04-8.165-11.743-7.795-18.852c0.328-6.307,3.834-15.851,6.292-21.857
	c0.728-1.779-1.187-3.473-2.868-2.541c-7.152,3.965-19.79,10.41-26.362,10.41c-11.081,0-21.38-5.005-28.307-13.947
	c-3.851-4.971-6.307-10.932-7.071-17.173c-0.716-5.845-0.033-11.578,1.895-16.832c0.888-2.42-1.502-4.697-3.925-3.817
	c-3.864,1.403-7.987,2.136-12.224,2.136c-9.531,0-18.485-3.704-25.212-10.431c-6.727-6.727-10.431-15.68-10.431-25.212
	c0-4.234,0.731-8.354,2.134-12.216c0.894-2.463-1.44-4.797-3.903-3.901c-3.864,1.407-7.986,2.139-12.219,2.139
	c-11.014,0-21.268-4.962-28.208-13.828c-3.907-4.992-6.398-11.001-7.169-17.292c-1.342-10.937,2.218-21.469,9.666-29.219
	c-0.044-0.027-0.091-0.052-0.131-0.083l-31.735,31.918c-7.795,7.796-11.536,18.564-10.164,29.747
	c0.772,6.292,3.263,12.3,7.169,17.292c6.939,8.866,17.192,13.828,28.208,13.828c4.234,0,8.355-0.732,12.219-2.139
	c2.462-0.896,4.797,1.438,3.903,3.901c-1.402,3.862-2.134,7.981-2.134,12.216c0,9.532,3.705,18.486,10.431,25.212
	c6.726,6.726,15.68,10.431,25.212,10.431c4.237,0,8.36-0.732,12.224-2.136c2.423-0.88,4.813,1.397,3.925,3.817
	c-1.928,5.253-2.61,10.985-1.895,16.832c0.764,6.241,3.22,12.203,7.071,17.173c6.927,8.941,17.226,13.947,28.307,13.947
	c6.572,0,19.208-6.445,26.362-10.409c1.681-0.932,3.596,0.763,2.868,2.541c-2.46,6.007-5.964,15.552-6.292,21.857
	c-0.371,7.11,2.768,13.813,7.795,18.852c3.927,3.936,9.006,6.615,14.496,7.491c7.572,1.209,14.946-0.737,20.73-5.227l34.785-32.64
	C275.979,454.215,275.659,453.852,275.335,453.489z"/>
<g>
	<path style="fill:#765C43;" d="M283.029,498.733c-8.412,0-16.313-3.268-22.249-9.204l-43.716-43.716
		c-5.935-5.935-9.203-13.837-9.203-22.249s3.268-16.313,9.203-22.249l1.174-1.174c5.935-5.935,13.837-9.203,22.249-9.203
		c8.412,0,16.313,3.268,22.249,9.203l43.716,43.716c5.935,5.935,9.203,13.837,9.203,22.249c0,8.412-3.269,16.314-9.205,22.249
		l-1.17,1.172C299.344,495.464,291.442,498.733,283.029,498.733z"/>
	<path style="fill:#765C43;" d="M330.421,450.221c-8.412,0-16.313-3.268-22.249-9.203l-43.716-43.716
		c-5.935-5.935-9.203-13.837-9.203-22.249c0-8.412,3.268-16.314,9.203-22.249l1.174-1.174c5.935-5.935,13.837-9.203,22.249-9.203
		s16.314,3.268,22.249,9.203l43.716,43.716c5.935,5.935,9.203,13.837,9.203,22.249s-3.268,16.313-9.202,22.248l-1.176,1.175
		C346.736,446.951,338.833,450.221,330.421,450.221z"/>
	<path style="fill:#765C43;" d="M377.814,402.828c-8.412,0-16.313-3.268-22.249-9.203l-43.716-43.716
		c-5.943-5.944-9.217-13.845-9.217-22.249s3.274-16.306,9.218-22.25l1.17-1.172c5.937-5.937,13.838-9.205,22.25-9.205
		c8.412,0,16.313,3.268,22.249,9.203l43.716,43.717c5.935,5.935,9.203,13.837,9.203,22.249c0,8.412-3.268,16.313-9.203,22.249
		l-1.174,1.174C394.127,399.56,386.225,402.828,377.814,402.828z"/>
	<path style="fill:#765C43;" d="M425.205,355.437c-8.412,0-16.313-3.268-22.249-9.203l-43.716-43.717
		c-5.935-5.935-9.203-13.837-9.203-22.249s3.268-16.313,9.203-22.249l1.174-1.174c5.935-5.935,13.837-9.203,22.249-9.203
		s16.313,3.268,22.249,9.203l43.716,43.716c5.935,5.935,9.203,13.837,9.203,22.249c0,8.412-3.269,16.314-9.205,22.249l-1.17,1.172
		C441.519,352.168,433.618,355.437,425.205,355.437z"/>
</g>
<g>
	<path style="fill:#634D3E;" d="M303.442,478.32c-8.412,0-16.313-3.268-22.249-9.204L237.477,425.4
		c-5.935-5.935-9.203-13.837-9.203-22.249c0-3.615,0.608-7.136,1.767-10.446c-4.393,1.539-8.418,4.052-11.803,7.436l-1.174,1.174
		c-5.935,5.935-9.203,13.837-9.203,22.249s3.268,16.314,9.203,22.249l43.716,43.716c5.935,5.935,13.837,9.204,22.249,9.204
		s16.314-3.268,22.251-9.207l1.17-1.172c3.385-3.385,5.898-7.409,7.437-11.803C310.576,477.713,307.057,478.32,303.442,478.32z"/>
	<path style="fill:#634D3E;" d="M350.835,429.807c-8.412,0-16.313-3.268-22.249-9.203l-43.716-43.716
		c-5.935-5.935-9.203-13.837-9.203-22.249c0-3.615,0.608-7.136,1.767-10.446c-4.393,1.539-8.418,4.052-11.803,7.436l-1.174,1.174
		c-5.935,5.935-9.203,13.837-9.203,22.249c0,8.412,3.268,16.313,9.203,22.249l43.716,43.716c5.935,5.935,13.837,9.203,22.249,9.203
		s16.314-3.269,22.249-9.204l1.176-1.175c3.384-3.384,5.897-7.409,7.436-11.802C357.97,429.2,354.45,429.807,350.835,429.807z"/>
	<path style="fill:#634D3E;" d="M398.226,382.416c-8.412,0-16.313-3.268-22.249-9.203l-43.716-43.716
		c-5.943-5.944-9.217-13.845-9.217-22.249c0-3.613,0.609-7.132,1.771-10.444c-4.389,1.539-8.412,4.052-11.795,7.436l-1.17,1.172
		c-5.945,5.944-9.218,13.846-9.218,22.25c0,8.404,3.273,16.305,9.217,22.249l43.716,43.716c5.935,5.935,13.837,9.203,22.249,9.203
		c8.412,0,16.313-3.268,22.249-9.203l1.174-1.174c3.384-3.385,5.898-7.409,7.436-11.803
		C405.362,381.808,401.841,382.416,398.226,382.416z"/>
	<path style="fill:#634D3E;" d="M445.617,335.024c-8.412,0-16.313-3.268-22.249-9.203l-43.716-43.717
		c-5.935-5.935-9.203-13.837-9.203-22.249c0-3.615,0.608-7.136,1.767-10.446c-4.393,1.539-8.418,4.052-11.803,7.436l-1.174,1.174
		c-5.935,5.935-9.203,13.837-9.203,22.249s3.268,16.313,9.203,22.249l43.716,43.717c5.935,5.935,13.837,9.203,22.249,9.203
		s16.314-3.268,22.251-9.205l1.17-1.172c3.385-3.385,5.898-7.41,7.437-11.803C452.753,334.416,449.233,335.024,445.617,335.024z"/>
</g>
<path style="fill:#765C43;" d="M313.419,207.707c6.727,6.726,15.68,10.43,25.212,10.43s18.485-3.704,25.212-10.431
	c6.726-6.726,10.431-15.68,10.431-25.212c0-9.531-3.705-18.486-10.431-25.212L241.306,34.745
	c-5.672-5.673-13.214-8.797-21.237-8.797h-35.169c-5.877,0-11.401-2.288-15.557-6.443c-4.022-4.023-9.371-6.239-15.059-6.239
	c-5.689,0-11.037,2.215-15.059,6.237l-7.003,7.003l113.839,113.839l0.001,0.001L313.419,207.707z"/>
<path style="fill:#E2AC76;" d="M246.061,166.396C246.061,166.396,246.061,166.397,246.061,166.396l67.359,67.359
	c6.727,6.726,15.68,10.43,25.212,10.43s18.485-3.704,25.212-10.431c6.726-6.726,10.431-15.68,10.431-25.212
	c0-4.533-0.847-8.931-2.448-13.025c-1.767,4.516-4.454,8.66-7.982,12.188c-6.727,6.726-15.68,10.431-25.212,10.431
	s-18.485-3.704-25.212-10.43l-67.358-67.358l-0.001-0.001l-22.169-22.169l-12.987,13.062L246.061,166.396z"/>
<g>
</g>
<g>
</g>
<g>
</g>
<g>
</g>
<g>
</g>
<g>
</g>
<g>
</g>
<g>
</g>
<g>
</g>
<g>
</g>
<g>
</g>
<g>
</g>
<g>
</g>
<g>
</g>
<g>
</g>
</svg>
