<?xml version="1.0" encoding="iso-8859-1"?>
<!-- Generator: Adobe Illustrator 19.0.0, SVG Export Plug-In . SVG Version: 6.00 Build 0)  -->
<svg version="1.1" id="Layer_1" xmlns="http://www.w3.org/2000/svg" xmlns:xlink="http://www.w3.org/1999/xlink" x="0px" y="0px"
	 viewBox="0 0 512 512" style="enable-background:new 0 0 512 512;" xml:space="preserve">
<circle style="fill:#FF633E;" cx="255.996" cy="255.996" r="255.996"/>
<path style="fill:#CD2A01;" d="M512,255.999c0-24.978-3.592-49.114-10.263-71.936L395.695,78.021h-279.39v355.957l67.759,67.759
	C206.886,508.408,231.022,512,255.999,512C397.385,512,512,397.385,512,255.999z"/>
<rect x="116.306" y="78.021" style="fill:#C6C5CB;" width="279.391" height="355.96"/>
<rect x="256.007" y="78.021" style="fill:#8B8992;" width="139.69" height="355.96"/>
<rect x="116.306" y="78.021" style="fill:#FFFFFF;" width="279.391" height="332.241"/>
<rect x="255.996" y="78.021" style="fill:#E1E1E3;" width="139.69" height="332.241"/>
<g>
	<rect x="163.242" y="265.17" style="fill:#006EF5;" width="92.754" height="29.382"/>
	<rect x="163.242" y="120.705" style="fill:#006EF5;" width="92.754" height="29.382"/>
</g>
<g>
	<rect x="209.624" y="265.17" style="fill:#004DB0;" width="46.382" height="29.382"/>
	<rect x="209.624" y="120.705" style="fill:#004DB0;" width="46.382" height="29.382"/>
</g>
<rect id="SVGCleanerId_0" x="163.242" y="319.797" style="fill:#C6C5CB;" width="185.509" height="13.092"/>
<rect id="SVGCleanerId_1" x="163.242" y="354.487" style="fill:#C6C5CB;" width="185.509" height="13.092"/>
<g>
	<rect x="163.242" y="175.331" style="fill:#C6C5CB;" width="185.509" height="13.092"/>
	<rect x="163.242" y="210.021" style="fill:#C6C5CB;" width="185.509" height="13.092"/>
</g>
<g>
	<rect id="SVGCleanerId_0_1_" x="163.242" y="319.797" style="fill:#C6C5CB;" width="185.509" height="13.092"/>
</g>
<g>
	<rect id="SVGCleanerId_1_1_" x="163.242" y="354.487" style="fill:#C6C5CB;" width="185.509" height="13.092"/>
</g>
<g>
	<rect x="256.007" y="175.331" style="fill:#8B8992;" width="92.754" height="13.092"/>
	<rect x="256.007" y="210.021" style="fill:#8B8992;" width="92.754" height="13.092"/>
	<rect x="256.007" y="319.797" style="fill:#8B8992;" width="92.754" height="13.092"/>
	<rect x="256.007" y="354.487" style="fill:#8B8992;" width="92.754" height="13.092"/>
</g>
<g>
</g>
<g>
</g>
<g>
</g>
<g>
</g>
<g>
</g>
<g>
</g>
<g>
</g>
<g>
</g>
<g>
</g>
<g>
</g>
<g>
</g>
<g>
</g>
<g>
</g>
<g>
</g>
<g>
</g>
</svg>
