<?xml version="1.0" encoding="iso-8859-1"?>
<!-- Generator: Adobe Illustrator 19.0.0, SVG Export Plug-In . SVG Version: 6.00 Build 0)  -->
<svg version="1.1" id="Layer_1" xmlns="http://www.w3.org/2000/svg" xmlns:xlink="http://www.w3.org/1999/xlink" x="0px" y="0px"
	 viewBox="0 0 491.52 491.52" style="enable-background:new 0 0 491.52 491.52;" xml:space="preserve">
<rect x="186.478" y="175.001" style="fill:#F6C358;" width="115.564" height="74.199"/>
<polygon style="fill:#E1E6E9;" points="301.914,218.839 244.261,248.339 186.607,218.839 173.68,223.878 241.333,330.599 
	244.261,330.599 247.189,330.599 314.842,223.878 "/>
<polygon style="fill:#64798A;" points="127.549,241.862 218.917,330.599 241.333,330.599 173.68,223.878 "/>
<path style="fill:#3A556A;" d="M113.296,247.419c-15.689,6.531-28,19.226-34.045,35.108L62.84,330.599h156.077l-91.368-88.737
	L113.296,247.419z"/>
<polygon style="fill:#EBF0F3;" points="186.607,218.839 241.333,246.836 208.971,279.548 173.68,223.878 "/>
<polygon style="fill:#64798A;" points="360.972,241.862 269.604,330.599 247.189,330.599 314.842,223.878 "/>
<path style="fill:#3A556A;" d="M375.226,247.419c15.689,6.531,28,19.226,34.045,35.108l16.411,48.072H269.604l91.368-88.737
	L375.226,247.419z"/>
<polygon style="fill:#EBF0F3;" points="301.914,218.839 247.189,246.836 279.551,279.548 314.842,223.878 "/>
<g>
	
		<ellipse transform="matrix(-0.9437 -0.3308 0.3308 -0.9437 584.8721 345.3429)" style="fill:#F6C358;" cx="321.825" cy="122.898" rx="16.164" ry="26.322"/>
	
		<ellipse transform="matrix(-0.3308 -0.9437 0.9437 -0.3308 105.8718 320.8313)" style="fill:#F6C358;" cx="166.688" cy="122.878" rx="26.322" ry="16.164"/>
</g>
<path style="fill:#FCD462;" d="M321.156,118.99c0,53.043-34.427,111.921-76.895,111.921c-42.469,0-76.895-58.878-76.895-111.921
	s34.426-80.166,76.895-80.166C286.729,38.824,321.156,65.946,321.156,118.99z"/>
<path style="fill:#64798A;" d="M244.253,16.839c-40.601,0-74.124,30.308-79.178,69.534c-0.771,5.983,2.523,11.741,8.061,14.131
	c24.114,10.406,47.341,18.85,68.494,22.707c1.566,0.285,3.168,0.28,4.733-0.008c21.771-4.015,44.933-11.879,69.13-22.614
	c5.475-2.428,8.712-8.144,7.956-14.085C318.453,47.214,284.901,16.839,244.253,16.839z"/>
<path style="fill:#2F4859;" d="M368.365,38.508L244.972,3.092c-0.465-0.133-0.958-0.133-1.423,0L120.156,38.508
	c-2.49,0.715-2.49,4.244,0,4.959l123.393,35.416c0.465,0.133,0.959,0.133,1.423,0l123.393-35.416
	C370.856,42.752,370.856,39.223,368.365,38.508z"/>
<path style="fill:#3A556A;" d="M368.365,35.516L244.972,0.1c-0.465-0.133-0.958-0.133-1.423,0L120.156,35.516
	c-2.49,0.715-2.49,4.244,0,4.959l123.393,35.416c0.465,0.133,0.959,0.133,1.423,0l123.393-35.416
	C370.856,39.76,370.856,36.231,368.365,35.516z"/>
<path style="fill:#E56353;" d="M188.322,112.185c-2.532,0-4.581-2.048-4.581-4.58V60.038c0-1.887,1.159-3.587,2.921-4.267
	l54.567-21.2c2.349-0.922,5.015,0.25,5.928,2.608c0.917,2.357-0.251,5.015-2.608,5.932l-51.646,20.062v44.431
	C192.903,110.137,190.854,112.185,188.322,112.185z"/>
<ellipse style="fill:#2F4859;" cx="244.263" cy="37.995" rx="11.807" ry="7.634"/>
<polygon style="fill:#E56353;" points="205.172,155.778 171.47,155.778 181.086,103.187 195.558,103.187 "/>
<circle style="fill:#D15241;" cx="188.322" cy="100.485" r="11.996"/>
<path style="fill:#FFFFFF;" d="M374.91,250.297v43.015L244.261,308.39C244.261,308.39,273.354,262.27,374.91,250.297z"/>
<path style="fill:#EBF0F3;" d="M405.912,265.374v43.016H244.261C244.261,308.39,297.942,270.696,405.912,265.374z"/>
<path style="fill:#FFFFFF;" d="M113.611,250.297v43.015l130.65,15.078C244.261,308.39,215.167,262.27,113.611,250.297z"/>
<path style="fill:#EBF0F3;" d="M82.609,265.374v43.016h161.652C244.261,308.39,190.579,270.696,82.609,265.374z"/>
<polygon style="fill:#2D93BA;" points="415.656,471.354 244.261,491.52 244.261,308.195 425.682,286.85 "/>
<polygon style="fill:#27A2DB;" points="72.866,471.354 244.261,491.52 244.261,308.195 62.84,286.85 "/>
<g>
	<ellipse style="fill:#FCD462;" cx="411.436" cy="380.006" rx="17.244" ry="32.369"/>
	<ellipse style="fill:#FCD462;" cx="80.085" cy="380.006" rx="17.244" ry="32.369"/>
</g>
<g>
</g>
<g>
</g>
<g>
</g>
<g>
</g>
<g>
</g>
<g>
</g>
<g>
</g>
<g>
</g>
<g>
</g>
<g>
</g>
<g>
</g>
<g>
</g>
<g>
</g>
<g>
</g>
<g>
</g>
</svg>
