<?xml version="1.0" encoding="iso-8859-1"?>
<!-- Generator: Adobe Illustrator 19.0.0, SVG Export Plug-In . SVG Version: 6.00 Build 0)  -->
<svg version="1.1" id="Layer_1" xmlns="http://www.w3.org/2000/svg" xmlns:xlink="http://www.w3.org/1999/xlink" x="0px" y="0px"
	 viewBox="0 0 464 464" style="enable-background:new 0 0 464 464;" xml:space="preserve">
<g>
	<g>
		<g>
			<rect x="288" y="116" style="fill:#D24146;" width="24" height="55.995"/>
		</g>
	</g>
	<g>
		<g>
			<path style="fill:#E15050;" d="M312,116h-24c-8.837,0-16-7.163-16-16l0,0c0-8.837,7.163-16,16-16h24c8.837,0,16,7.163,16,16l0,0
				C328,108.837,320.837,116,312,116z"/>
		</g>
	</g>
	<polygon style="fill:#FFC855;" points="192,164 192,60 0,60 0,300 408,300 408,164 	"/>
	<g>
		<g>
			<path style="fill:#E15050;" d="M408,348H16c-8.837,0-16-7.163-16-16v-32h408V348z"/>
		</g>
	</g>
	<g>
		<g>
			<path style="fill:#FFD680;" d="M224,236h184v-72H192v40C192,221.673,206.327,236,224,236z"/>
		</g>
	</g>
	<g>
		<g>
			<rect y="284" style="fill:#FFB44B;" width="408" height="16"/>
		</g>
	</g>
	<g>
		<g>
			<circle style="fill:#5F505A;" cx="120" cy="316" r="80"/>
		</g>
	</g>
	<g>
		<g>
			<circle style="fill:#5F505A;" cx="272" cy="372" r="40"/>
		</g>
	</g>
	<g>
		<g>
			<circle style="fill:#5F505A;" cx="376" cy="372" r="40"/>
		</g>
	</g>
	<g>
		<g>
			<g>
				<path style="fill:#736E7D;" d="M120,420c-57.344,0-104-46.656-104-104s46.656-104,104-104s104,46.656,104,104
					S177.344,420,120,420z M120,228c-48.523,0-88,39.477-88,88s39.477,88,88,88s88-39.477,88-88S168.523,228,120,228z"/>
			</g>
		</g>
	</g>
	<path style="fill:#503C46;" d="M120,228c-48.523,0-88,39.477-88,88s39.477,88,88,88s88-39.477,88-88S168.523,228,120,228z
		 M191.545,308h-52.232l36.907-36.907C184.511,281.451,190.005,294.134,191.545,308z M128,244.455
		c13.866,1.54,26.549,7.034,36.907,15.325L128,296.688V244.455z M112,296.688L75.093,259.78
		c10.359-8.291,23.041-13.785,36.907-15.325V296.688z M112,387.545c-13.866-1.54-26.549-7.034-36.907-15.325L112,335.313V387.545z
		 M128,335.313l36.907,36.907c-10.359,8.291-23.041,13.785-36.907,15.325V335.313z M63.78,271.093L100.688,308H48.455
		C49.995,294.134,55.489,281.451,63.78,271.093z M48.455,324h52.232L63.78,360.907C55.489,350.549,49.995,337.866,48.455,324z
		 M176.22,360.907L139.313,324h52.232C190.005,337.866,184.511,350.549,176.22,360.907z"/>
	<path style="fill:#503C46;" d="M306,364h-20.142l10.072-17.445c2.211-3.828,0.898-8.719-2.93-10.93s-8.719-0.898-10.93,2.93
		L272,355.997l-10.07-17.442c-2.211-3.836-7.117-5.141-10.93-2.93c-3.828,2.211-5.141,7.102-2.93,10.93L258.142,364H238
		c-4.422,0-8,3.578-8,8s3.578,8,8,8h20.142l-10.072,17.445c-2.211,3.828-0.898,8.719,2.93,10.93c1.258,0.727,2.633,1.07,3.992,1.07
		c2.766,0,5.453-1.438,6.938-4L272,388.003l10.07,17.443c1.484,2.57,4.172,4,6.938,4c1.359,0,2.734-0.344,3.992-1.07
		c3.828-2.211,5.141-7.102,2.93-10.93L285.858,380H306c4.422,0,8-3.578,8-8S310.422,364,306,364z"/>
	<g>
		<g>
			<g>
				<path style="fill:#736E7D;" d="M272,420c-26.469,0-48-21.531-48-48s21.531-48,48-48s48,21.531,48,48S298.469,420,272,420z
					 M272,340c-17.648,0-32,14.352-32,32s14.352,32,32,32s32-14.352,32-32S289.648,340,272,340z"/>
			</g>
		</g>
	</g>
	<g>
		<g>
			<path style="fill:#D24146;" d="M408,380h56l-27.977-69.942c-2.43-6.075-8.313-10.058-14.856-10.058H408V380z"/>
		</g>
	</g>
	<path style="fill:#503C46;" d="M410,364h-20.142l10.072-17.445c2.211-3.828,0.898-8.719-2.93-10.93
		c-3.82-2.203-8.719-0.891-10.93,2.93L376,355.997l-10.07-17.442c-2.219-3.836-7.117-5.133-10.93-2.93
		c-3.828,2.211-5.141,7.102-2.93,10.93L362.142,364H342c-4.422,0-8,3.578-8,8s3.578,8,8,8h20.142l-10.072,17.445
		c-2.211,3.828-0.898,8.719,2.93,10.93c1.258,0.727,2.633,1.07,3.992,1.07c2.766,0,5.453-1.438,6.938-4L376,388.003l10.07,17.443
		c1.484,2.57,4.172,4,6.938,4c1.359,0,2.734-0.344,3.992-1.07c3.828-2.211,5.141-7.102,2.93-10.93L389.858,380H410
		c4.422,0,8-3.578,8-8S414.422,364,410,364z"/>
	<g>
		<g>
			<g>
				<path style="fill:#736E7D;" d="M376,420c-26.469,0-48-21.531-48-48s21.531-48,48-48s48,21.531,48,48S402.469,420,376,420z
					 M376,340c-17.648,0-32,14.352-32,32s14.352,32,32,32s32-14.352,32-32S393.648,340,376,340z"/>
			</g>
		</g>
	</g>
	<g>
		<g>
			<path style="fill:#E15050;" d="M224,68H0v-8c0-8.837,7.163-16,16-16h192L224,68z"/>
		</g>
	</g>
	<g>
		<g>
			<path style="fill:#00DCEB;" d="M112,164H40c-8.837,0-16-7.163-16-16v-48c0-8.837,7.163-16,16-16h72c8.837,0,16,7.163,16,16v48
				C128,156.837,120.837,164,112,164z"/>
		</g>
	</g>
	<g>
		<g>
			<path style="fill:#00DCEB;" d="M192,164h-24c-8.837,0-16-7.163-16-16v-48c0-8.837,7.163-16,16-16h24V164z"/>
		</g>
	</g>
	<g>
		<g>
			<path style="fill:#E15050;" d="M448.2,253.1L408,300V164l40.2,46.9c5.033,5.872,7.8,13.351,7.8,21.086v0.029
				C456,239.749,453.233,247.228,448.2,253.1z"/>
		</g>
	</g>
	<g>
		<g>
			<rect y="68" style="fill:#FFB44B;" width="192" height="16"/>
		</g>
	</g>
	<g>
		<g>
			<path style="fill:#FFF0BE;" d="M368,196h16c4.418,0,8-3.582,8-8l0,0c0-4.418-3.582-8-8-8h-16c-4.418,0-8,3.582-8,8l0,0
				C360,192.418,363.582,196,368,196z"/>
		</g>
	</g>
	<g>
		<g>
			<path style="fill:#FFE6A1;" d="M248,196h88c4.418,0,8-3.582,8-8l0,0c0-4.418-3.582-8-8-8h-88c-4.418,0-8,3.582-8,8l0,0
				C240,192.418,243.582,196,248,196z"/>
		</g>
	</g>
</g>
<g>
</g>
<g>
</g>
<g>
</g>
<g>
</g>
<g>
</g>
<g>
</g>
<g>
</g>
<g>
</g>
<g>
</g>
<g>
</g>
<g>
</g>
<g>
</g>
<g>
</g>
<g>
</g>
<g>
</g>
</svg>
