<?xml version="1.0" encoding="utf-8"?>
<!-- Generator: Adobe Illustrator 22.1.0, SVG Export Plug-In . SVG Version: 6.00 Build 0)  -->
<svg version="1.1" id="Layer_1" xmlns="http://www.w3.org/2000/svg" xmlns:xlink="http://www.w3.org/1999/xlink" x="0px" y="0px"
	 viewBox="0 0 841.9 595.3" style="enable-background:new 0 0 841.9 595.3;" xml:space="preserve">
<style type="text/css">
	.st0{fill:url(#SVGID_1_);}
</style>
<linearGradient id="SVGID_1_" gradientUnits="userSpaceOnUse" x1="19.4793" y1="298.1168" x2="822" y2="298.1168">
	<stop  offset="0" style="stop-color:#509BD5"/>
	<stop  offset="1" style="stop-color:#2B3990"/>
</linearGradient>
<path class="st0" d="M704.5,329.3c59.8-12.5,86.7-58.4,86.7-111.6c0-61.7-36.8-115.6-121.5-115.6h-89.2v-0.2
	c-29.6,0-139.1,0-175.4,0c-68.9,0-113.4,42.6-113.4,94s35.1,90.2,99,107.8c71.4,19.4,92.1,45.1,92.1,87.1c0,44.5-37.6,72.7-84,72.7
	c-38.7,0-88.2-0.8-123.2-1.1c-2.6,0-4.9-1.3-6.4-3.4l-92.8-131.6c59.8-12.5,86.7-58.4,86.7-111.6c0-61.7-36.8-115.6-121.5-115.6
	H19.5v394h36.1V331.3h62.1c12.9,0,25,6.3,32.4,17l98.8,142.5c1.5,2.1,3.9,3.4,6.5,3.4l0,0H294c30.3,0,68.6,0,104.8,0
	c58.3,0,119-36.3,119-107.8c0-60.8-39.5-97.1-112.8-116.5c-60.8-16.3-78.3-43.2-78.3-73.9c0-37,29.4-63.3,78.3-63.3
	c20.9,0,94.9,0.5,142.5,0.8v362.7h36.1V333.2h62.1c12.9,0,25,6.3,32.4,17l101.2,145.9H822L704.5,329.3z M55.6,299.1V132.3h86
	c65,0,85.4,42.7,85.4,83.4c0,41.4-20.4,83.4-85.4,83.4H55.6z M583.6,301.1V134.3h86c65,0,85.4,42.7,85.4,83.4
	c0,41.4-20.4,83.4-85.4,83.4H583.6z"/>
</svg>
